<svg viewBox="0 0 800 800" xmlns="http://www.w3.org/2000/svg">
<g transform="translate(800, 0) scale(-1, 1)">
<circle cx="400" cy="58" fill="blue" r="8"/>
<line stroke="black" x1="400" x2="373" y1="58" y2="101"/>
<line stroke="black" x1="400" x2="373" y1="58" y2="101"/>
<line stroke="black" x1="400" x2="373" y1="58" y2="101"/>
<circle cx="573" cy="59" fill="blue" r="8"/>
<line stroke="black" x1="573" x2="400" y1="59" y2="58"/>
<line stroke="black" x1="573" x2="547" y1="59" y2="103"/>
<line stroke="black" x1="573" x2="547" y1="59" y2="103"/>
<circle cx="21" cy="103" fill="blue" r="8"/>
<circle cx="373" cy="101" fill="blue" r="8"/>
<line stroke="black" x1="373" x2="21" y1="101" y2="103"/>
<circle cx="547" cy="103" fill="blue" r="8"/>
<line stroke="black" x1="547" x2="373" y1="103" y2="101"/>
<line stroke="black" x1="547" x2="373" y1="103" y2="101"/>
<line stroke="black" x1="547" x2="373" y1="103" y2="101"/>
<circle cx="373" cy="101" fill="blue" r="8"/>
<line stroke="black" x1="373" x2="21" y1="101" y2="103"/>
<circle cx="573" cy="59" fill="blue" r="8"/>
<line stroke="black" x1="573" x2="400" y1="59" y2="58"/>
<line stroke="black" x1="573" x2="547" y1="59" y2="103"/>
<line stroke="black" x1="573" x2="547" y1="59" y2="103"/>
<circle cx="789" cy="58" fill="blue" r="8"/>
<line stroke="black" x1="789" x2="573" y1="58" y2="59"/>
<line stroke="black" x1="789" x2="573" y1="58" y2="59"/>
<line stroke="black" x1="789" x2="573" y1="58" y2="59"/>
<circle cx="373" cy="101" fill="blue" r="8"/>
<line stroke="black" x1="373" x2="21" y1="101" y2="103"/>
<circle cx="547" cy="103" fill="blue" r="8"/>
<line stroke="black" x1="547" x2="373" y1="103" y2="101"/>
<line stroke="black" x1="547" x2="373" y1="103" y2="101"/>
<line stroke="black" x1="547" x2="373" y1="103" y2="101"/>
<circle cx="573" cy="59" fill="blue" r="8"/>
<line stroke="black" x1="573" x2="400" y1="59" y2="58"/>
<line stroke="black" x1="573" x2="547" y1="59" y2="103"/>
<line stroke="black" x1="573" x2="547" y1="59" y2="103"/>
<circle cx="399" cy="59" fill="blue" r="8"/>
<line stroke="black" x1="399" x2="373" y1="59" y2="101"/>
<line stroke="black" x1="399" x2="373" y1="59" y2="101"/>
<line stroke="black" x1="399" x2="373" y1="59" y2="101"/>
</g>
</svg>